<?xml version="1.0" encoding="utf-8"?>
<!-- Generator: Adobe Illustrator 25.2.0, SVG Export Plug-In . SVG Version: 6.00 Build 0)  -->
<svg version="1.1" id="Layer_1" xmlns="http://www.w3.org/2000/svg" xmlns:xlink="http://www.w3.org/1999/xlink" x="0px" y="0px"
	 viewBox="0 0 250.9 92.2" style="enable-background:new 0 0 250.9 92.2;" xml:space="preserve">
<style type="text/css">
	.st0{fill:#232323;}
</style>
<g>
	<g>
		<g>
			<path class="st0" d="M69.9,7.6c0.9-1.9,2.5-3,4.5-3.5c5.4-1.4,10.3,1.9,10.8,7.6c0.6,7.2,0.4,14.4-1.7,21.5
				c-0.1,0.5-0.3,0.7-0.9,0.7c-1.6,0-3.1,0-4.7,0c-0.1,0-0.2,0-0.4-0.1c0.2-1,0.5-1.9,0.7-2.9c0.9-3.9,1.3-7.9,1.3-11.9
				c0-2,0-3.9-0.1-5.9c0-0.8-0.3-1.7-0.6-2.4c-0.6-1.2-1.7-1.8-3-1.7C74.5,9,73.5,9.7,73.1,11c-0.3,0.8-0.4,1.8-0.4,2.6
				c0,3.3,0,6.6,0,9.9c0,2.8-0.7,5.4-2.6,7.5c-2.9,3.2-6.7,3.8-10.7,2.7c-4-1.1-6.3-4-6.7-8c-0.4-4.2-0.2-8.5-0.2-12.8
				c0-1,0.3-2,0.6-3c1.9-5.7,9.5-8.3,14.3-4.8C68.4,5.9,69.1,6.8,69.9,7.6z M66.9,19C66.8,19,66.8,19,66.9,19
				c-0.1-1.6,0-3.1-0.1-4.7c0-0.8-0.1-1.7-0.4-2.5C65.9,10,64.5,9,62.6,8.9c-1.8,0-3.3,1-3.9,2.9c-0.2,0.7-0.4,1.5-0.4,2.2
				c0,3.4-0.1,6.7,0,10.1c0,0.9,0.2,1.8,0.6,2.6c0.5,1.3,1.5,2.1,2.9,2.3c2.6,0.3,4.4-0.9,4.8-3.5C66.8,23.3,66.8,21.2,66.9,19z"/>
			<path class="st0" d="M59.9,89.3c-1.9,0-3.7,0-5.5,0c-0.2,0-0.4-0.1-0.5-0.3c-0.8-2.6-3-3.4-5.3-3.6c-2.6-0.2-5.3-0.2-8-0.2
				c-1.3,0-2.6,0-4,0c0-1.5,0-2.8,0-4.3c0.9,0,1.7,0,2.7,0c-0.9-0.8-1.8-1.5-2.5-2.2c-4.1-4.2-4.7-12-1.2-16.3
				c2.9-3.6,8.9-4.2,12.4-1.1c0.5,0.5,0.9,1.1,1.4,1.6C52.7,57.7,62,58,65,64.2c1.6,3.3,1.6,6.6-0.4,9.7c-2.1,3.2-5.3,4.3-9,4.1
				c-3.6-0.2-6.6-1.7-8.2-5.1c-0.6-1.2-0.7-2.7-0.9-4.1c-0.1-0.6,0-1.3-0.2-2c-0.4-1.6-1.4-2.6-2.9-2.6c-1.6-0.1-3,0.8-3.4,2.3
				c-1.5,5.3-0.1,12.1,7.8,13.6c1.6,0.3,3.3,0.4,4.9,0.8c3.6,0.9,6.2,2.9,7.1,6.8C59.8,88.2,59.8,88.7,59.9,89.3z M52.2,68.6
				c-0.1,2.5,1.4,4.3,3.5,4.5c2,0.2,3.5-0.7,4.2-2.4c0.8-2,0.2-4.5-1.3-5.6c-1.3-1-2.8-1-4.2-0.4C52.8,65.4,52.2,66.8,52.2,68.6z"/>
			<path class="st0" d="M189.6,33.8c0.5-1.7,1.1-3.4,1.3-5c0.2-1.9,0.3-3.9,0.1-5.9c-0.3-2.4-2.3-3.5-4.3-2.9
				c-1.3,0.4-2.1,1.7-2.2,3.5c-0.1,1.7-0.1,3.4,0,5.1c0,0.7-0.2,0.9-0.9,0.9c-1.6,0-3.3,0-5,0c0-0.5,0-0.9,0-1.3
				c-0.1-1.8,0-3.6-0.2-5.4c-0.2-1.7-1.4-2.7-2.8-2.8c-1.5-0.1-2.9,0.8-3.4,2.3c-0.8,2.6-0.5,5.2,0.1,7.8c0.3,1.3,0.8,2.5,1.2,3.9
				c-1.8,0-3.6,0-5.4,0c-0.2,0-0.4-0.2-0.5-0.4c-2-5.5-2.6-11.1-1.1-16.7c1-3.9,3.6-6.6,7.4-8c2.2-0.8,4.4-1.5,6.6-2.3
				c1.1-0.4,2.2-0.7,2.8-1.9c0.1-0.1,0.3-0.2,0.5-0.2c1.8,0,3.6,0,5.5,0c0,1.3-0.4,2.4-1.2,3.4c-1.3,1.6-3.1,2.5-5.1,3.1
				c-2.7,0.8-5.4,1.4-8,2.3c-1.2,0.4-2.3,1.2-3.4,1.9c-0.4,0.3-0.7,0.8-0.9,1.3c1.8-1.3,3.7-1.7,5.8-1.5c2.2,0.2,3.9,1.3,5,3.3
				c1.4-2.3,3.5-3.2,6-3.4c2.4-0.1,4.6,0.4,6.5,2c2.1,1.8,2.9,4.2,3.2,6.8c0.3,3.4-0.4,6.6-1.7,9.7c-0.1,0.2-0.4,0.6-0.6,0.6
				C193.1,33.8,191.4,33.8,189.6,33.8z"/>
			<path class="st0" d="M106.9,62.4c1.6-2.8,4-3.2,6.8-3c0.8,0.1,1,0.3,1,1.1c-0.1,1.3,0,2.7,0,4c-3.9-0.2-4.6,1-4.7,3.6
				c-0.9,0-1.9,0-2.8,0c-0.9,0-1.8,0-2.9,0c0-0.5,0-1,0-1.5c0-1.4-1-2.4-2.4-2.5c-1.5-0.1-2.7,0.8-2.8,2.3c-0.1,1.9,0,3.9,0,5.8
				c0.1,0,0.2,0,0.3,0c3.1-2.6,6.5-2.6,10-1c3.3,1.5,5.1,4.3,5.3,7.9c0.4,6.2-3.4,10.2-9.8,10.6c-2.7,0.1-5.2-0.2-7.5-1.7
				c-2.4-1.6-3.8-3.9-3.9-6.6c-0.2-5.2-0.3-10.3-0.1-15.5c0.2-4.1,3.6-6.8,7.9-6.5C103.5,59.5,105.5,60.2,106.9,62.4z M108.7,80
				c0-2.8-1.9-4.7-4.8-4.8c-3,0-4.9,1.8-4.9,4.7c0,2.9,1.9,4.8,4.8,4.7C106.8,84.6,108.7,82.8,108.7,80z"/>
			<path class="st0" d="M125.9,59.6c-0.3,1.8-0.8,3.4-1,5.1c-0.1,1.2-0.1,2.4,0.1,3.6c0.3,1.9,1.5,3,3.5,3.2c1.9,0.2,3.8,0,4.9-1.9
				c0.5-0.9,0.7-2,0.7-3c0.1-2.3,0-4.6,0-6.9c1.9,0,3.8,0,5.8,0c0,0.4,0,0.7,0,1.1c0,6.3-0.1,12.7,0,19c0.1,6.3-4.2,9.6-9.5,9.9
				c-2.5,0.2-4.9-0.1-7.1-1.3c-3.7-1.9-5.3-5.3-4.5-9.8c0.9,0,1.9,0.1,2.8,0.1c0.9,0,1.8,0,2.8,0c0,0.6,0,1,0,1.5
				c0,2.6,1.7,4.3,4.2,4.5c3.1,0.2,5.1-1.1,5.4-3.8c0.2-2,0-4,0-5.9c-1.2,0.5-2.5,1.2-3.8,1.5c-5.9,1.2-11-2.8-11.3-8.9
				c-0.1-2.5,0.2-5,1.1-7.4c0.1-0.3,0.5-0.6,0.7-0.6C122.4,59.6,124.2,59.6,125.9,59.6z"/>
			<path class="st0" d="M208.9,33.8c-1.8,0-3.6,0-5.3,0c-0.2,0-0.5-0.4-0.6-0.7c-1.4-4.5-2.1-9.1-2-13.8c0.1-2.5-0.1-5.1,0.4-7.6
				c0.9-5.2,5.2-8.2,10.4-7.9c5.8,0.3,9.6,3.9,9.9,9.7c0.4,6.4,0.1,12.8-1.7,19c-0.4,1.3-0.4,1.3-1.7,1.3c-1.4,0-2.8,0-4.2,0
				c0.5-2.8,1.2-5.6,1.5-8.3c0.3-3.9,0.3-7.8,0.3-11.7c0-0.9-0.4-1.8-0.8-2.6c-0.7-1.5-2-2.2-3.7-2.2c-1.7,0-3,0.8-3.7,2.3
				c-0.4,0.8-0.7,1.8-0.7,2.7c-0.2,6.2-0.1,12.4,1.6,18.4C208.6,32.8,208.7,33.2,208.9,33.8z"/>
			<path class="st0" d="M39.9,33.8c0.4-1.8,0.8-3.6,1.2-5.3c0.9-5.1,1.1-10.2,0.6-15.3c-0.3-3-2.5-4.6-5.3-4.1
				c-1.7,0.3-2.7,1.5-3.2,3.1c-0.2,0.6-0.3,1.2-0.3,1.8c-0.3,6.5-0.1,12.9,1.8,19.2c0.1,0.2,0.1,0.4,0.1,0.7c-1.8,0-3.6,0-5.3,0
				c-0.2,0-0.5-0.4-0.6-0.7c-1.3-4.1-2-8.3-2-12.7c0-2.8-0.1-5.6,0.3-8.4c0.8-5.2,5.1-8.5,10.4-8.3c5.7,0.3,9.6,3.9,9.9,9.3
				c0.4,6.6,0.2,13.2-1.8,19.7c-0.2,0.8-0.6,1.1-1.4,1C42.9,33.8,41.4,33.8,39.9,33.8z"/>
			<path class="st0" d="M115.8,22.3c1.9,0,3.7,0,5.6,0c0,0.9,0,1.7,0,2.5c0.1,2.1,1.4,3.6,3.3,4.2c2.4,0.6,4.7,0,5.9-1.7
				c1.8-2.7,0.3-6.2-2.9-6.6c-0.7-0.1-1.4-0.1-2.3-0.2c0-0.7,0-1.5,0-2.2c0-0.7,0-1.5,0-2.4c0.8,0,1.5,0,2.2,0
				c2.4-0.2,3.9-2.3,3-4.6c-0.2-0.5-0.5-1-0.9-1.4c-1.5-1.4-4.2-1.6-5.9-0.5c-1,0.6-1.5,1.6-1.6,2.7c0,0.6,0,1.3,0,2.1
				c-2,0-3.9,0-5.8,0c-0.9-3.4,0.7-7.2,4.2-8.9c4.2-2.2,8.5-2,12.6,0.5c2.9,1.8,4.2,5.5,3.2,8.8c-0.4,1.5-1.4,2.7-2.8,3.5
				c-0.3,0.1-0.5,0.3-0.7,0.4c0.9,0.8,1.9,1.4,2.6,2.3c2.8,3.7,1.7,9.3-2.5,11.7c-4.5,2.6-9.2,2.5-13.7-0.1
				C116.2,30.4,114.7,25.9,115.8,22.3z"/>
			<path class="st0" d="M151.3,70.5c-1.8,0-3.5,0-5.3,0c-0.2,0-0.5-0.4-0.6-0.6c-0.6-4,0.6-7.4,4.7-9.4c3.1-1.5,6.4-1.6,9.7-0.4
				c3.6,1.4,5.6,4,5.7,7.8c0.2,4.4,0.2,8.8-0.1,13.2c-0.3,4.6-3.5,7.7-8,8.4c-2.8,0.4-5.6,0.2-8.2-1.2c-3.8-2.1-5.7-6.7-4.3-10.8
				c0.1-0.2,0.4-0.5,0.6-0.5c1.7,0,3.4,0.1,5.1,0.2c-0.1,0.9-0.2,1.8-0.2,2.6c0,3.8,3.3,5.9,6.8,4.4c1.7-0.8,2.5-2.2,2.5-3.9
				c0-3.9,0.1-7.8,0-11.7c0-2.5-1.8-4-4.4-4c-2.5,0-4,1.6-4.1,4.1C151.3,69.1,151.3,69.7,151.3,70.5z"/>
			<path class="st0" d="M90.7,4.3c1.9,0,3.8,0,5.8,0c0,4.1,0,8.1,0,12.2c0.1,0,0.2,0.1,0.3,0c3.1-2.6,6.5-2.6,9.9-1.1
				c3.6,1.5,5.2,4.5,5.5,8.3c0.4,5.9-3.5,10.2-9.5,10.6c-2.2,0.1-4.4,0-6.4-0.9c-3.5-1.5-5.4-4.4-5.5-8.1
				C90.6,18.2,90.7,11.3,90.7,4.3z M96.5,24.4c0,3,1.8,4.8,4.9,4.8c2.9,0,4.9-2,4.8-4.9c0-2.9-2-4.8-4.8-4.8
				C98.2,19.5,96.4,21.3,96.5,24.4z"/>
			<path class="st0" d="M174.7,59.7c1.8,0,3.5,0,5.2,0c0.2,0,0.5,0.3,0.5,0.5c0.1,1.1,0.7,1.9,1.5,2.5c1.6,1.3,2.5,2.9,2.2,5
				c-0.2,1.8,0.2,2.8,2.1,3.6c3.8,1.7,5.5,5.1,5.2,9.3c-0.3,4-2.4,6.7-6,8.1c-3.9,1.5-7.9,1.4-11.5-1c-3.6-2.3-4.6-5.8-4-9.8
				c0.6-3.9,3.2-6.2,6.8-7.4c1.6-0.5,1.5-0.5,1.6-2.1c0.1-1.5-0.5-2.5-1.6-3.4C175.2,63.7,174.2,62,174.7,59.7z M185.6,79.9
				c0-2.9-2-4.8-4.9-4.8c-2.9,0-5,2-5,4.8c0,2.9,1.9,4.8,4.9,4.8C183.6,84.7,185.6,82.8,185.6,79.9z"/>
			<path class="st0" d="M239,14.6c1.9,0,3.7,0,5.7,0c-0.2,2.5,1.3,4.4,2.3,6.5c0.8,1.8,1,3.8,0.7,5.7c-0.7,4.1-4,7-8.6,7.4
				c-2.7,0.2-5.4,0-7.9-1.5c-2.7-1.7-4.1-4.3-4.2-7.4c-0.1-6.9,0-13.8,0-20.7c0-0.1,0-0.2,0.1-0.3c1.9,0,3.7,0,5.7,0
				c0,0.4,0.1,0.8,0.1,1.2c0,6,0,12.1,0,18.1c0,0.7,0,1.4,0.2,2.1c0.5,2.6,3.1,4.1,5.9,3.3c2.6-0.7,3.8-3,2.9-5.7
				c-0.4-1.1-1-2.2-1.6-3.2C239.2,18.5,238.7,16.7,239,14.6z"/>
			<path class="st0" d="M10.5,20.4c0-1.7,0-3.2,0-4.9c0.5,0,1,0,1.4,0c0.5,0,1,0,1.5-0.1c1.7-0.2,2.7-1.2,2.9-2.6
				c0.2-1.7-0.6-3.1-2.2-3.7c-0.5-0.2-1.1-0.3-1.8-0.5c0.1-1.5,0.2-3.1,0.3-4.7C16,4,19,4.8,20.9,7.8c1.7,2.6,1.9,5.5,0.1,8.2
				c-0.6,0.9-1.6,1.6-2.5,2.4c2.3,1,3.5,3,3.9,5.5c0.7,4.5-1.7,8.3-6,9.6c-3.9,1.2-7.8,1.1-11.5-1.1c-4-2.5-4.5-7.6-3.7-10
				c1.9,0,3.7,0,5.5,0c0.1,1.2,0,2.3,0.2,3.3c0.6,2.8,3.4,4.2,6.4,3.4c2.6-0.7,3.9-3.3,3-6c-0.5-1.5-1.9-2.6-3.8-2.7
				C12,20.3,11.3,20.4,10.5,20.4z"/>
			<path class="st0" d="M201,74.4c0,2.3-0.2,4.3,0.1,6.3c0.4,2.8,2.7,4.2,5.4,3.6c1.8-0.4,3-1.9,3.3-4.1c0.5-2.9-0.4-5.5-2.1-7.8
				c-1-1.4-2-2.7-3-4.1c-1.7-2.6-2.4-5.4-2.2-8.6c2,0,3.9,0,5.9,0c-0.1,3.3,1.5,5.8,3.4,8.2c1.8,2.2,3.4,4.7,3.8,7.6
				c0.7,3.9,0.5,7.7-2.3,10.8c-2.4,2.8-5.7,3.7-9.2,3.3c-5.6-0.6-9.1-4.5-9.2-10.1c0-1.4,0.2-2.9,0.4-4.4c0-0.2,0.3-0.6,0.5-0.6
				C197.5,74.4,199.2,74.4,201,74.4z"/>
			<path class="st0" d="M73.8,74.6c0,2.2-0.2,4.1,0.1,6.1c0.4,2.8,2.6,4.2,5.3,3.7c1.7-0.4,2.7-1.5,3.2-3.2c0.6-2.3,0.6-4.6-0.7-6.8
				c-0.9-1.6-2-3.1-3.1-4.6c-2-2.7-3.2-5.7-3.3-9.1c0-0.3,0-0.6,0-1c2,0,3.9,0,5.8,0c0.1,0.8,0.2,1.5,0.3,2.3
				c0.3,1.7,1.1,3.2,2.2,4.6c1.1,1.5,2.3,2.9,3.2,4.5c2.3,4.1,2.8,8.5,0.9,12.9c-2,4.5-6.5,6.1-10.7,5.6c-5.6-0.6-9-4.5-9.1-10.1
				c0-1.5,0.2-3,0.4-4.4c0-0.2,0.3-0.6,0.5-0.6C70.3,74.5,72.1,74.5,73.8,74.6z"/>
			<path class="st0" d="M146.8,19c0,2-0.1,3.8,0,5.5c0.1,0.9,0.4,1.7,0.8,2.5c0.8,1.5,2.1,2.1,3.8,2.1c1.6,0,2.9-0.7,3.6-2.2
				c1.1-2.4,1.2-4.8,0-7.2c-0.8-1.6-1.9-3.1-3-4.6c-1.8-2.4-3.3-5-3.6-8c-0.1-0.9-0.1-1.8-0.1-2.7c2,0,3.9,0,5.9,0
				c0.1,0.6,0.1,1.1,0.2,1.7c0.3,2,1.1,3.7,2.3,5.3c1.1,1.5,2.3,2.9,3.2,4.5c2.1,3.6,2.5,7.6,1.3,11.6c-1.1,3.7-3.8,6-7.7,6.7
				c-3.7,0.6-7.2,0-10-2.8c-2.3-2.3-2.8-5.2-2.8-8.3c0-1.1,0.3-2.2,0.5-3.4c0-0.2,0.4-0.5,0.6-0.5C143.6,18.9,145.3,19,146.8,19z"/>
		</g>
		<g>
			<g>
				<path class="st0" d="M189.4,36.6c0.5-1.4,1-2.8,1.5-4.1c0.8-2.6,1.3-5.2,0.7-7.9c-0.1-0.5-0.3-1-0.7-1.3c-0.8-1-2.5-0.8-2.9,0.5
					c-0.3,0.7-0.3,1.5-0.4,2.3c0,2,0,4.1,0,6.2c-2.8,0-5.6,0-8.5,0c0-2,0-4,0-5.9c0-0.6,0-1.3-0.2-1.9c-0.2-1.1-0.8-1.7-1.6-1.7
					c-0.9-0.1-1.9,0.5-2,1.5c-0.2,1.7-0.4,3.5-0.2,5.1c0.4,2.1,1.2,4.2,1.8,6.2c0.1,0.3,0.2,0.6,0.4,1.1c-0.5,0-0.9,0-1.2,0
					c-2.2,0-4.5,0-6.7,0c-0.3,0-0.8-0.2-0.9-0.5c-2.2-5.6-2.9-11.4-1.7-17.3c1.1-5.3,4.4-8.7,9.5-10.5c2-0.7,4.1-1.3,6.1-2
					c0.8-0.3,1.6-0.6,1.7-1.6c0-0.2,0.3-0.4,0.5-0.4c2.6,0,5.3,0,8,0c0,2.5-0.5,4.6-2.3,6.3c-1.9,1.8-4.2,2.6-6.6,3.3
					c-1.3,0.4-2.6,0.7-3.8,1.1c1.2,0.7,2.3,1.4,3.6,2.2c1.8-1.8,4.3-2.4,6.9-2.3c5,0.1,8.8,3.6,9.7,8.6c0.7,4.4-0.2,8.6-2,12.7
					c-0.1,0.2-0.4,0.5-0.5,0.5C194.8,36.6,192.1,36.6,189.4,36.6z M175.3,35.3c-0.1-0.4-0.2-0.7-0.3-0.9c-0.4-1.5-1-3-1.2-4.6
					c-0.4-2.1-0.5-4.2,0.3-6.3c0.5-1.5,1.8-2.3,3.3-2.2c1.4,0.1,2.4,0.9,2.7,2.5c0.2,0.8,0.2,1.7,0.2,2.5c0,1.5,0,3,0,4.5
					c2,0,3.9,0,5.9,0c0-1.5,0-3,0-4.5c0-0.9,0.1-1.9,0.3-2.7c0.6-2,2.6-2.8,4.4-1.9c1,0.5,1.5,1.4,1.8,2.4c0.6,2.2,0.4,4.5-0.1,6.7
					c-0.3,1.5-0.9,3-1.3,4.5c0.1,0,0.1,0.1,0.2,0.1c1.1,0,2.2,0,3.3,0c2.3,0,2.3,0,3-2.2c1.2-3.5,1.6-7.1,0.6-10.7
					c-1-3.3-3.1-5.5-6.5-6.1c-3.3-0.6-6.4-0.1-8.5,3c0,0-0.1,0-0.2,0c-1.1-1.9-2.7-2.9-4.9-3.2c-2.1-0.2-4,0.2-5.8,1.4
					c0.4-0.6,0.9-1.3,1.5-1.7c1.2-0.7,2.5-1.3,3.8-1.7c2.3-0.8,4.7-1.3,7-2c1.6-0.5,3.2-1.2,4.4-2.4c1.1-1.1,1.8-2.4,1.8-4.1
					c-1.9,0-3.8,0-5.6,0c-0.2,0-0.4,0.1-0.4,0.2c-0.7,1.4-2.1,1.7-3.4,2.1c-2.2,0.8-4.5,1.5-6.7,2.4c-3.5,1.5-5.8,4.2-6.7,7.9
					c-1.5,5.6-0.8,11.2,1.1,16.7c0.1,0.2,0.4,0.4,0.6,0.4C171.7,35.3,173.4,35.3,175.3,35.3z"/>
				<path class="st0" d="M71.7,6.7c2.9-2.8,6.3-3.5,10.1-2.3c3.7,1.1,5.9,3.9,6.4,7.6c0.4,2.9,0.4,5.9,0.4,8.9
					c0.1,5.1-0.7,10.1-2.2,15c-0.2,0.6-0.5,0.8-1.1,0.8c-2.2,0-4.4,0-6.6,0c-0.3,0-0.6,0-1,0c0.4-1.5,0.8-2.8,1.1-4.2
					c0.9-3.9,1.4-7.8,1.4-11.7c0-2.2,0-4.5-0.1-6.7c-0.1-1.5-0.9-2.2-2-2.3c-0.9,0-1.5,0.3-1.7,1.2c-0.2,0.7-0.3,1.5-0.3,2.3
					c0,3.3,0,6.6,0,10c-0.1,4-1.4,7.5-4.7,9.9c-7.1,5.1-17.2,0.5-17.9-8.2c-0.4-4.6-0.6-9.4,0.2-14C54.7,5.4,62.7,1.5,69.3,5
					C70.2,5.4,70.9,6.1,71.7,6.7z M71.8,9c-0.5-0.6-0.8-1.1-1.3-1.6c-0.5-0.5-1-0.9-1.5-1.2c-3.2-1.8-8.1-1.3-10.9,1
					c-2.3,1.9-3.4,4.4-3.5,7.3c-0.1,3.9-0.1,7.9,0,11.8c0.1,2.4,1,4.6,2.7,6.4c3.1,3.2,7,3.7,11,2.3c3.9-1.3,5.8-4.4,6.3-8.4
					c0.3-2.4,0.1-4.8,0.2-7.2c0-1.8,0-3.7,0.1-5.5c0.1-1.9,1-3.1,2.3-3.5c2.1-0.6,4,0.6,4.3,2.9c0.2,1.9,0.2,3.8,0.2,5.6
					c0.1,4.1-0.2,8.1-1.1,12.1c-0.3,1.4-0.6,2.7-1,4.1c1.6,0,3.2,0,4.7,0c0.8,0,1.1-0.3,1.3-1c2-6.6,2.1-13.4,1.8-20.2
					c-0.1-1.2-0.3-2.4-0.7-3.5c-1.2-3.3-3.6-5.2-7.1-5.4C76.2,5,73.5,6,71.8,9z"/>
				<path class="st0" d="M126.1,23.3c0-2.4,0-4.8,0-7.2c0.7,0,1.3,0,1.9,0c0.5,0,1,0,1.5-0.1c1.2-0.2,1.7-0.7,1.9-1.6
					c0.2-1.1-0.2-2.1-1.3-2.5c-1.1-0.5-2.3-0.5-3.5,0c-0.8,0.4-1.2,1.1-1.2,2c0,1,0,2,0,3.1c-2.7,0-5.5,0-8.3,0
					c-1.7-7.5,3.1-12,9-12.9c3.6-0.5,7,0.1,10,2.2c4.3,3,5.2,10.2,1.2,13.7c1.3,1.3,2.3,2.8,2.7,4.6c1,4.6-1,8.9-5.2,10.9
					c-4.5,2.1-9,2.1-13.4-0.1c-5-2.6-6.3-8.1-5-12.7c0.1-0.2,0.4-0.5,0.6-0.5c2.6,0.1,5.2,0.2,7.8,0.3c-0.1,0.9-0.3,1.8-0.3,2.6
					c-0.1,3.2,2.1,4.9,5.2,4c1.4-0.4,2.3-1.7,2.1-3.2c-0.1-1.5-1-2.4-2.5-2.5C128.3,23.3,127.2,23.3,126.1,23.3z M124.2,15.6
					c0-0.5,0-0.8-0.1-1.2c0-2.5,1.5-4.1,4-4.2c0.5,0,1,0,1.5,0.1c2.1,0.4,3.3,1.9,3.2,3.8c-0.1,2-1.5,3.2-3.8,3.2c-0.5,0-1,0-1.6,0
					c0,1.4,0,2.6,0,3.9c0,0.2,0,0.5,0.1,0.8c0.7,0.1,1.4,0.1,2.1,0.2c2.2,0.3,3.6,1.6,3.7,3.6c0.2,2.4-0.9,4.2-3.2,4.8
					c-0.7,0.2-1.5,0.2-2.3,0.2c-2.5-0.1-4.1-1.6-4.4-4.1c-0.1-0.9,0-1.8,0-2.8c-1.9,0-3.8,0-5.7,0c-1,4.1,0.5,8.4,4.1,10.3
					c4.3,2.4,8.8,2.4,13.2,0c3.3-1.8,4.8-5.3,4-9c-0.5-2.3-1.8-4.1-4.1-5c0.4-0.2,0.7-0.4,0.9-0.5c1.4-0.8,2.4-2,2.7-3.6
					c0.7-3.3-0.1-6.1-2.7-8.3c-2-1.6-4.3-2.3-6.8-2.4c-3.5-0.1-6.7,0.8-9,3.6c-1.7,2-2,4.3-1.6,6.8
					C120.3,15.6,122.2,15.6,124.2,15.6z"/>
				<path class="st0" d="M212.4,36.6c-2.8,0-5.4,0-8,0c-0.2,0-0.5-0.4-0.6-0.6c-1.5-4.7-2.4-9.4-2.4-14.4c0-2.8-0.1-5.7,0.3-8.4
					c1.1-6.5,6.5-10.1,13-9.2c5.9,0.8,9.6,4.9,9.9,11c0.3,6.9,0,13.8-2.1,20.4c-0.3,0.9-0.6,1.3-1.6,1.2c-2.3-0.1-4.7,0-7.1,0
					c0.5-1.8,0.9-3.6,1.3-5.3c1.2-5.3,1.2-10.7,1-16.1c0-0.7-0.3-1.5-0.6-2.1c-0.5-1.1-1.5-1.5-2.7-1.4c-1.2,0-2,0.6-2.4,1.7
					c-0.3,0.7-0.5,1.4-0.5,2.1c-0.2,6.1-0.1,12.2,1.6,18.2C211.8,34.6,212,35.5,212.4,36.6z M215.6,35.3c1.8,0,3.4,0,5.1,0
					c0.2,0,0.6-0.3,0.7-0.6c0.3-1,0.6-2.1,0.9-3.1c1.3-5.3,1.4-10.8,1.1-16.2c-0.3-6-3.7-9.6-9.3-10.1c-5.7-0.5-10.2,2.7-11.1,8.3
					c-0.4,2.7-0.2,5.5-0.3,8.2c0,4.4,0.7,8.6,2,12.8c0.1,0.3,0.4,0.7,0.7,0.7c1.7,0.1,3.4,0,5.3,0c-0.1-0.4-0.2-0.7-0.3-1
					c-1.8-6.3-2-12.8-1.7-19.3c0.1-2.3,1.5-4,3.3-4.5c2.8-0.7,5.2,1,5.5,4.1c0.5,5.1,0.3,10.2-0.6,15.3
					C216.5,31.7,216,33.4,215.6,35.3z"/>
				<path class="st0" d="M40.1,36.6c0.5-1.8,0.9-3.4,1.3-5.1c1-4.3,1.2-8.6,1.1-12.9c0-1.4,0-2.9-0.2-4.3c-0.2-1.5-1.2-2.4-2.4-2.6
					c-1.7-0.2-2.8,0.5-3.3,2.1c-0.2,0.8-0.4,1.6-0.4,2.5c-0.1,5.2-0.1,10.4,1.2,15.5c0.4,1.6,0.8,3.1,1.3,4.8c-1.7,0-3.4,0-5,0
					c-0.9,0-1.7,0-2.6,0c-0.6,0-0.9-0.1-1.1-0.8c-1.5-4.9-2.4-9.8-2.3-14.9c0-2.4-0.1-4.7,0.2-7.1C28.7,7,34.2,3.1,41,4
					c6,0.8,9.6,4.8,10,11.4c0.3,6,0.1,12-1.5,17.9c-0.3,0.9-0.5,1.8-0.8,2.7c-0.1,0.2-0.4,0.6-0.6,0.6
					C45.4,36.6,42.8,36.6,40.1,36.6z M36.8,35.3c0-0.2,0-0.3,0-0.4c-1.8-5.9-2.1-12.1-1.9-18.2c0-1,0.1-2,0.4-3
					c0.7-2.6,3.1-4,5.5-3.1c2.1,0.7,2.9,2.5,3,4.5c0.2,4.5,0.3,9-0.4,13.4c-0.4,2.3-0.9,4.5-1.4,6.8c1.6,0,3.2,0,4.8,0
					c0.6,0,0.9-0.2,1-0.8c1-3.3,1.7-6.6,1.8-10c0.1-3.6,0.3-7.2-0.1-10.8c-0.6-5.1-4.6-8.5-9.8-8.6c-5.3-0.1-9.5,3-10.3,8.1
					C28.9,16,29,18.7,29,21.5c0,4.5,0.7,8.9,2,13.2c0.1,0.3,0.4,0.6,0.6,0.6C33.3,35.3,35.1,35.3,36.8,35.3z"/>
				<path class="st0" d="M13,11.3c0.1-2.3,0.3-4.5,0.4-6.8C13.5,4.3,13.8,4,14,4c3.9-0.1,7.4,0.8,9.9,4.1c2.2,2.9,2.7,8.1-0.8,11.5
					c0.6,0.8,1.2,1.5,1.7,2.3c2.7,4.8,1.1,10.6-3.6,13.4c-4.4,2.6-11.3,2.3-15.3-0.8c-3.9-3-4.6-7.8-3.5-11.8
					c0.1-0.2,0.4-0.4,0.5-0.4c2.6,0.1,5.2,0.2,7.9,0.3c-0.1,0.6-0.2,1.1-0.3,1.6c-0.1,0.7-0.1,1.4-0.1,2.1c0.2,2.3,2.1,3.5,4.5,3.1
					c2-0.4,3.1-2.1,2.5-4.3c-0.3-1.2-1.4-1.9-2.9-2c-0.5,0-1.1,0-1.6,0c-0.5,0-1,0-1.6,0c0-2.5,0-5,0-7.5c0.8,0,1.6,0,2.4,0
					c0.5,0,1,0,1.4,0c1.2-0.1,1.9-0.7,2-1.7c0.1-1-0.6-2-1.7-2.2C14.7,11.4,13.9,11.4,13,11.3z M3.5,23.6C2.3,29.1,5,33.8,10.2,35.2
					c2.8,0.8,5.7,0.7,8.5-0.2c1.7-0.6,3.1-1.5,4.2-2.9c2.6-3.1,2.8-9.9-2.3-12.4c3.2-1.7,4.1-4.4,3.5-7.8c-0.7-3.9-5.6-7.2-9.4-6.4
					C14.6,7,14.5,8.5,14.4,10c0.7,0.2,1.4,0.3,1.9,0.6c1.4,0.6,2.2,2.1,2,3.7c-0.2,1.4-1.3,2.4-2.9,2.6c-0.6,0.1-1.2,0.1-1.8,0.1
					c-0.4,0-0.7,0-1.1,0c0,1.7,0,3.2,0,4.9c0.7,0,1.5,0,2.2,0c1.7,0.1,3.2,0.8,3.8,2.5c0.6,1.8,0.5,3.6-1,5.1
					c-1.6,1.5-3.6,1.6-5.5,0.9c-1.9-0.6-2.7-2.1-2.9-4.1c-0.1-0.8,0-1.6,0-2.6c-1.7,0-3.3,0-5,0C3.9,23.6,3.7,23.6,3.5,23.6z"/>
				<path class="st0" d="M239.4,14.7c2.7,0,5.4,0,8.1,0c0.1,0.1,0.1,0.1,0.1,0.1c-0.2,2.5,0.9,4.5,2,6.7c1.7,3.6,1.9,7.3-0.4,10.8
					c-1.9,2.8-4.7,4.1-7.9,4.5c-2.8,0.4-5.5,0.2-8.1-1.1c-3.9-1.9-5.7-5.3-5.8-9.5c-0.1-7.2,0-14.3,0-21.5c0-0.1,0-0.2,0.1-0.4
					c0.3,0,0.6-0.1,1-0.1c2.1,0,4.2,0,6.3,0c0.8,0,1.1,0.2,1.1,1.1c0,6.4,0,12.9,0,19.3c0,0.7,0,1.3,0.1,2c0.2,1.4,1,2.3,2.4,2.6
					c1.4,0.3,3-0.2,3.7-1.2c0.6-1,0.5-2,0.1-3c-0.4-0.9-0.9-1.8-1.4-2.7c-1.3-2.2-1.6-4.5-1.3-7C239.3,15.1,239.4,14.9,239.4,14.7z
					 M246.4,16c-1.9,0-3.6,0-5.4,0c-0.2,0-0.5,0.4-0.5,0.6c-0.1,1.8,0.4,3.4,1.3,5c0.6,1.1,1.2,2.2,1.6,3.4c0.8,2.4-0.3,4.5-2.5,5.3
					c-2.5,0.9-5.1-0.1-6-2.4c-0.3-0.8-0.4-1.6-0.4-2.5c0-6.3,0-12.5,0-18.8c0-0.3,0-0.7,0-1c-2,0-3.9,0-5.8,0c0,0.2-0.1,0.3-0.1,0.4
					c0,6.6,0,13.2,0,19.8c0,3.4,1.2,6.3,4.3,8.2c2.4,1.5,5,1.7,7.7,1.5c3-0.3,5.6-1.4,7.4-3.9c2.2-3.1,2.1-6.3,0.5-9.6
					C247.5,20.2,246.2,18.4,246.4,16z"/>
				<path class="st0" d="M149,4.3c2.2,0,4.3,0,6.4,0c2,0,2,0,2.1,2c0.1,1.9,0.7,3.5,1.8,5.1c1.4,2.1,3,4,4.1,6.3
					c1.9,3.7,2.1,7.8,0.8,11.8c-1.5,4.6-5.4,7.3-10.8,7.6c-5.5,0.3-10.3-3.1-11.6-8.3c-0.6-2.4-0.6-4.9-0.2-7.3
					c0.4-2.4,0.5-2.4,2.8-2.3c2,0.1,4,0.1,6,0.2c-0.2,1.4-0.5,2.7-0.5,3.9c0,1.3,0.1,2.6,0.4,3.9c0.4,1.4,1.5,2,2.8,2
					c1.4,0,2.4-0.7,2.8-2.1c0.7-2.2,0.6-4.3-0.6-6.2c-1.1-1.8-2.4-3.4-3.6-5.2C149.5,12.3,148.7,8.5,149,4.3z M143.2,20.5
					c-0.1,0.9-0.3,1.8-0.4,2.8c-0.3,3.3,0.1,6.4,2.4,9c2.5,2.8,5.7,3.6,9.3,3.4c4.4-0.3,7.8-3.2,8.8-7.5c0.9-4.1,0.4-8-1.8-11.5
					c-0.9-1.5-2-2.9-3.1-4.3c-1-1.4-1.7-2.9-2-4.5c-0.1-0.7-0.2-1.4-0.2-2.1c-1.9,0-3.8,0-5.7,0c0,0.1-0.1,0.2-0.1,0.4
					c0,0.2,0,0.4,0,0.6c0,3.6,1.3,6.6,3.4,9.4c1,1.3,2,2.7,2.8,4.1c1.4,2.4,1.5,4.9,0.6,7.5c-0.6,1.8-2,2.7-3.8,2.7
					c-1.9,0-3.4-0.8-4.1-2.6c-0.4-1-0.6-2.2-0.7-3.3c-0.1-1.3,0.1-2.6,0.2-4C147,20.5,145.2,20.5,143.2,20.5z"/>
				<path class="st0" d="M99.7,15.5c2.6-1.1,5.1-1.2,7.6-0.6c6.1,1.6,8.6,6.9,7.9,12.3c-0.7,5.7-4.7,9.3-10.4,9.8
					c-2.7,0.2-5.2,0-7.7-1.2c-3.6-1.7-5.4-4.7-5.8-8.6c-0.1-0.9-0.1-1.9-0.1-2.9c0-6.3,0-12.7,0-19c0-0.8,0.2-1,1-1
					c2.2,0.1,4.3,0.1,6.5,0c0.8,0,1,0.3,1,1c0,3,0,6,0,9.1C99.7,14.7,99.7,15,99.7,15.5z M92.7,5.6c-0.1,0.1-0.1,0.2-0.1,0.3
					c0,7-0.1,14,0.1,20.9c0.1,3.5,1.8,6.1,5,7.7c2.1,1.1,4.4,1.2,6.7,1.1c5.5-0.2,9.2-3.8,9.6-9.3c0.5-6.6-5.2-11.8-11.7-10.3
					c-1.4,0.3-2.6,1.1-4,1.7c0-3.9,0-8,0-12.1C96.4,5.6,94.6,5.6,92.7,5.6z"/>
				<path class="st0" d="M60.4,20.8c0-2,0-3.9,0-5.9c0-0.6,0.2-1.3,0.4-1.9c0.6-1.7,1.9-2.6,3.7-2.6c1.8,0,3.1,0.9,3.7,2.6
					c0.3,0.8,0.5,1.6,0.5,2.4c0,3.6,0,7.2-0.1,10.9c0,0.6-0.2,1.2-0.4,1.8c-0.6,1.6-1.9,2.4-3.6,2.4c-1.8,0-3.1-0.7-3.6-2.3
					c-0.4-1.2-0.5-2.4-0.6-3.7c-0.1-1.2,0-2.5,0-3.7C60.3,20.8,60.4,20.8,60.4,20.8z M67.4,20.5C67.4,20.5,67.4,20.5,67.4,20.5
					c0-1.8,0-3.6,0-5.4c0-0.7-0.3-1.4-0.5-2.1c-0.4-1-1.3-1.3-2.3-1.3c-1.1,0-1.9,0.4-2.3,1.4c-0.3,0.9-0.5,2-0.6,3
					c-0.1,2.9-0.1,5.9,0,8.8c0,0.9,0.1,1.8,0.4,2.6c0.4,1.2,1.2,1.7,2.5,1.7c1.2,0,2.1-0.6,2.5-1.7c0.2-0.6,0.4-1.3,0.4-2
					C67.5,23.8,67.4,22.1,67.4,20.5z"/>
			</g>
			<path class="st0" d="M103.2,30.6c-3,0-4.8-1.8-4.8-4.9c0-3,1.9-4.8,4.9-4.8c2.9,0,4.8,2,4.8,4.9C108,28.8,106.1,30.6,103.2,30.6z
				 M99.7,25.8c0,2.2,1.2,3.5,3.5,3.5c2.2,0,3.6-1.4,3.6-3.6c0-2.2-1.4-3.6-3.6-3.6C100.9,22.2,99.7,23.5,99.7,25.8z"/>
		</g>
	</g>
	<g>
		<path class="st0" d="M63.4,69.9c0,1.7-0.5,3.2-2.1,4c-1.5,0.7-3,0.6-4.4-0.4c-1.6-1.2-2-4.1-0.9-6c1-1.7,3.1-2.4,5-1.7
			C62.5,66.4,63.4,67.9,63.4,69.9z M56.7,70.1c0,0.1,0,0.5,0.1,0.8c0.2,1.2,1,2,2.3,2.2c1.2,0.2,2.2-0.3,2.7-1.3
			c0.5-1.1,0.6-2.3,0-3.4c-0.4-0.9-1.1-1.4-2.1-1.4C57.8,66.7,56.7,67.8,56.7,70.1z"/>
		<g>
			<path class="st0" d="M39,80.6c-3.6-4.4-4.4-9.3-2.7-14.6c2.2-6.9,10.8-9.1,16.2-4.3c0.1,0.1,0.2,0.1,0.3,0.2
				c4-3.7,9.9-3.2,13.3-0.9c3.5,2.4,5.3,7,4.2,11.4c-1,4.2-4.4,7.3-8.8,7.9c-2.4,0.3-4.8,0.1-7.1-0.9c-4.1-1.9-6.1-5.1-6.1-9.5
				c0-0.5,0-1.1-0.1-1.6c-0.2-0.8-0.6-1.4-1.5-1.5c-0.9-0.1-1.7,0.2-2,1.1c-0.3,0.8-0.5,1.7-0.6,2.6c-0.2,3.7,0.8,6.8,4.3,8.7
				c1.5,0.8,3.1,1.1,4.8,1.2c2,0.2,3.9,0.6,5.7,1.5c3.7,1.9,5.7,5.5,5.5,9.8c-2.7,0-5.5,0-8.3,0c-0.1-0.2-0.2-0.4-0.2-0.5
				c-0.1-1.6-1.1-2.6-2.6-2.9c-1.3-0.3-2.6-0.5-3.9-0.5c-3.2-0.1-6.5,0-9.7,0c-0.3,0-0.6,0-0.9,0C38.4,86,38.6,81,39,80.6z
				 M63.1,90.5c-0.2-2.9-1.3-5.1-3.6-6.7c-2.1-1.5-4.5-2-7-2.2c-4.4-0.3-9.2-2.8-9.7-8.9c-0.2-1.8-0.2-3.7,0.7-5.4
				c0.7-1.3,1.9-1.9,3.4-1.7c1.2,0.1,2.2,1.1,2.5,2.4c0.2,0.8,0.1,1.7,0.2,2.5c0.3,1.3,0.4,2.8,1,3.9c2.5,4.8,9.7,6.4,14.5,3.3
				c3.7-2.4,5.1-7.1,3.4-11.4c-1.5-3.9-5.9-6.3-10.2-5.6c-2.3,0.4-4.3,1.4-5.6,3.4c-0.6-0.6-1-1.3-1.6-1.7
				c-3.8-3.2-10.1-2.1-12.7,2.1c-3.2,5.2-1.7,13.1,3.2,16.8c0.3,0.2,0.5,0.4,0.8,0.6c-0.7,0.2-1.3,0.1-1.9,0.2
				c-0.2,0-0.6,0.2-0.6,0.4c0,1.3,0,2.7,0,4c1.7,0,3.3,0,4.9,0c2.4,0,4.9,0,7.3,0.2c2.2,0.2,4.2,1,4.9,3.4c0,0.2,0.3,0.3,0.5,0.3
				C59.4,90.5,61.2,90.5,63.1,90.5z"/>
			<path class="st0" d="M126.8,78.5c-0.8-0.5-1.9-1.1-2.9-2c-2.2-1.9-3.2-4.4-3.5-7.3c-0.2-3.1,0.3-6.1,1.5-9
				c0.1-0.3,0.5-0.6,0.8-0.6c2.5,0,5,0,7.6,0c0.1,0,0.2,0,0.3,0.1c-0.5,1.7-1.1,3.4-1.3,5.1c-0.2,1.5-0.3,3-0.1,4.5
				c0.1,1.5,1.2,2.2,2.8,2.2c1.9,0.1,3.1-0.6,3.4-2c0.1-0.5,0.2-1.1,0.2-1.6c0-2.7,0-5.4,0-8.2c2.8,0,5.5,0,8.4,0c0,0.4,0,0.7,0,1
				c0,6.9,0,13.9,0,20.8c0,5.5-3.4,9.6-8.9,10.5c-3.7,0.6-7.4,0.3-10.6-1.8c-3.7-2.5-4.8-6.1-4.2-10.3c0.2-1.4,0.2-1.3,1.6-1.3
				C123.6,78.6,125.4,78.5,126.8,78.5z M121.6,80c-0.5,3.3,0.1,6.2,2.7,8.4c2.6,2.2,5.6,2.7,8.9,2.5c5.5-0.4,9.7-3.7,9.5-10.2
				c-0.2-6.2,0-12.4,0-18.6c0-0.3,0-0.7,0-1.1c-2,0-3.9,0-5.8,0c0,0.3,0,0.6,0,0.9c0,2.3,0,4.6-0.1,7c-0.1,2.2-1.7,3.7-4,3.9
				c-2.8,0.2-4.4-0.8-4.9-3.2c-0.2-1.3-0.2-2.7-0.1-4.1c0.2-1.5,0.6-3,0.9-4.6c-1.8,0-3.5,0-5.3,0c-0.2,0-0.5,0.3-0.6,0.6
				c-0.9,2.2-1.2,4.5-1.2,6.8c0.2,6.5,5.3,10.7,11.5,9.3c1.2-0.3,2.4-0.9,3.6-1.4c0,1.7,0,3.6,0,5.4c-0.1,2.3-1.4,3.8-3.6,4.2
				c-3.2,0.5-6.1-1-5.9-5c0-0.3,0-0.5,0-0.9C125.4,80,123.5,80,121.6,80z M135.6,78.4c-1,0.3-1.8,0.6-2.7,0.7
				c-0.9,0.1-1.8,0.1-2.7,0.1c-1.3,0-1.3-0.1-1.5,1.1c-0.5,3.2,1.7,5.1,4.8,4.1c1-0.3,1.8-1,1.9-2.1
				C135.5,81.1,135.5,79.8,135.6,78.4z"/>
			<path class="st0" d="M154.9,77.1c-0.2,1.4-0.4,2.6-0.4,3.8c0,2.6,1.8,4,4.4,3.4c1.2-0.3,2.2-1.3,2.2-2.6c0-4.1,0.1-8.1,0-12.2
				c0-1.5-1.3-2.5-3-2.4c-1.7,0.1-2.7,1-2.7,2.6c0,1.1,0.2,2.1,0.3,3.3c-2.8,0-5.6,0-8.4,0c-2-7,1.8-12.1,8.1-13.4
				c3.6-0.7,7.1-0.3,10.2,2c2.5,1.9,3.9,4.5,3.9,7.6c0.1,4.4,0.2,8.9-0.1,13.3c-0.3,5.2-3.8,8.8-9,9.6c-3.8,0.6-7.4,0.2-10.6-2.3
				c-3.4-2.7-4.7-7.2-3.4-11.7c0.2-0.8,0.6-1.2,1.5-1.1C150.2,77,152.5,77,154.9,77.1z M153.3,78.4c-1.7-0.1-3.4-0.2-5.1-0.2
				c-0.2,0-0.5,0.3-0.6,0.5c-1.2,3.4,0,7.6,2.8,9.9c3.4,2.7,7.4,3,11.4,1.7c3.7-1.1,6.1-4.2,6.2-8c0.1-4.5,0.1-9,0-13.5
				c-0.1-2.6-1.3-4.7-3.4-6.2c-2.8-2-5.9-2.3-9.1-1.7c-5.3,0.9-8.2,5-7.4,10.3c0,0.2,0.3,0.6,0.4,0.6c1.8,0,3.6,0,5.4,0
				c0-1-0.1-1.8,0-2.5c0.1-1.6,1-2.7,2.5-3.2c2.7-0.8,5.9,0.3,5.9,4.1c0,3.2,0,6.4,0,9.5c0,0.7,0,1.4-0.1,2c-0.3,2.6-2.2,4.1-4.8,4
				c-2.6-0.1-4.2-1.8-4.3-4.4C153.1,80.4,153.2,79.5,153.3,78.4z"/>
			<path class="st0" d="M109.8,61.5c2.5-2.3,5.4-2.5,8.4-1.7c0.2,0.1,0.6,0.4,0.6,0.6c0,2.3,0,4.6,0,7.1c-0.6-0.1-1.2-0.2-1.8-0.2
				c-0.5,0-1-0.1-1.4,0c-1,0.1-1.4,0.5-1.4,1.5c0,0.6,0,1.3,0,2c-0.7,0-1.4,0-2,0c0,0.1,0,0.1-0.1,0.2c0.4,0.2,0.9,0.5,1.3,0.7
				c3.2,1.9,4.9,4.7,5.3,8.4c0.7,7.1-4.2,11.9-11.1,12.2c-2.3,0.1-4.5-0.1-6.6-1.1c-4-1.8-5.9-5.1-6.1-9.3
				c-0.2-4.8-0.1-9.6-0.1-14.5c0.1-4.4,3.4-7.7,7.8-8C105.3,59.2,107.7,59.7,109.8,61.5z M117.5,65.9c0-1.6,0-3,0-4.5
				c0-0.2-0.4-0.5-0.7-0.6c-2.9-0.4-5.4,0.1-7,2.9c-1.2-2-3-2.7-5.1-3c-4.2-0.6-8.7,2-8.6,7.4c0.1,4.3,0,8.6,0,12.8
				c0,4.6,2.3,8,6.1,9.3c2.1,0.7,4.4,0.8,6.6,0.6c4.6-0.5,7.8-3.5,8.5-8c1-6.1-3.3-11.2-9.5-11.3c-2.2,0-4.2,0.5-6,2.2
				c0-2.1,0-3.9,0-5.8c0-1.5,1-2.5,2.6-2.5c1.5,0,2.5,1,2.5,2.5c0,0.5,0,0.9,0,1.4c2,0,3.9,0,5.7,0
				C113.1,66.3,113.9,65.7,117.5,65.9z M103.3,71c2.6-0.6,2.7-0.7,2.5-3.1c0-0.8-0.4-1.2-1.2-1.3c-0.8,0-1.3,0.4-1.3,1.2
				C103.3,68.9,103.3,69.9,103.3,71z"/>
			<path class="st0" d="M203.6,59.7c2.8,0,5.5,0,8.3,0c0.1,1,0.1,1.9,0.2,2.8c0.2,1.5,0.8,2.9,1.6,4.1c1.3,1.8,2.8,3.5,3.8,5.5
				c2.5,4.9,2.9,9.9,0.1,14.8c-1.8,3.2-4.8,4.8-8.4,5.2c-4.4,0.5-8.3-0.7-11.1-4.4c-2-2.7-2.4-5.9-2.1-9.2c0.1-1.2,0.4-2.4,0.6-3.6
				c0-0.2,0.4-0.5,0.6-0.5c2.5,0,5.1,0.1,7.8,0.2c-0.1,0.6-0.2,1.2-0.3,1.7c-0.3,1.8-0.5,3.7-0.1,5.5c0.4,1.6,1.3,2.5,2.7,2.6
				c1.8,0.1,2.9-0.7,3.3-2.6c0.5-2.2,0.2-4.2-1-6.1c-1.3-1.9-2.7-3.8-3.9-5.7C203.7,66.8,203.2,63.4,203.6,59.7z M203.2,75.7
				c-1.6,0-3.3,0-5,0c-0.2,0-0.5,0.3-0.5,0.5c-0.2,1.1-0.4,2.1-0.4,3.2c-0.4,6.4,3.3,10.8,9.4,11.5c5.1,0.5,9.5-2.2,10.9-6.9
				c1.2-3.9,0.7-7.8-1.3-11.4c-1-1.8-2.3-3.4-3.6-5.1c-1-1.5-1.7-3-2-4.8c-0.1-0.5-0.1-1-0.1-1.6c-2,0-3.9,0-5.8,0
				c-0.2,3.1,0.5,5.9,2.1,8.5c1.1,1.7,2.3,3.3,3.5,5c1.4,2,1.9,4.2,1.7,6.6c-0.4,3.5-3,5.5-6,4.3c-1.9-0.7-2.7-2.4-2.9-4.3
				C203.1,79.4,203.2,77.7,203.2,75.7z"/>
			<path class="st0" d="M77.1,59.7c2.8,0,5.5,0,8.3,0c0.1,0.9,0.1,1.8,0.2,2.7c0.2,1.6,0.8,3,1.7,4.2c1.2,1.7,2.5,3.3,3.5,5
				c2.6,4.6,3.1,9.5,0.8,14.4c-1.8,3.9-5.1,5.8-9.3,6.1c-4.7,0.4-8.7-1.1-11.2-5.4c-1.5-2.5-1.8-5.4-1.6-8.3
				c0.1-1.2,0.4-2.4,0.6-3.6c0-0.2,0.4-0.6,0.6-0.6c2.5,0,5,0.2,7.6,0.2c0.1,0,0.1,0.1,0.2,0.1c-0.2,0.9-0.4,1.8-0.4,2.7
				c-0.1,1.4-0.1,2.9,0.1,4.3c0.2,1.6,1.4,2.5,2.7,2.6c1.8,0.1,2.9-0.8,3.3-2.6c0.4-2,0.3-3.9-0.8-5.7c-1.3-1.9-2.7-3.8-3.9-5.7
				C77.4,67.1,76.8,63.6,77.1,59.7z M76.7,75.7c-1.6,0-3.3,0-5,0c-0.2,0-0.5,0.3-0.5,0.5c-0.2,1.1-0.4,2.3-0.4,3.4
				c-0.3,6.2,3.4,10.6,9.3,11.2c5.1,0.5,9.6-2.1,11-6.7c1.3-4,0.8-8-1.2-11.6c-0.9-1.7-2.2-3.2-3.3-4.7c-1.2-1.6-1.9-3.3-2.2-5.2
				c-0.1-0.5-0.1-1-0.1-1.6c-1.9,0-3.8,0-5.8,0c0,0.3-0.1,0.6-0.1,0.8c0,3.3,1,6.2,2.9,8.9c1,1.4,2.1,2.9,3.1,4.4
				c1.3,1.9,1.6,4,1.3,6.1c-0.4,3.4-3,5.3-6,4.2c-1.9-0.7-2.7-2.4-2.9-4.3C76.6,79.4,76.7,77.7,76.7,75.7z"/>
			<path class="st0" d="M176,59.7c2.7,0,5.4,0,8.2,0c-0.4,2,0.7,3.1,2,4.3c1.4,1.2,1.9,2.9,1.7,4.7c-0.1,1.4,0.2,2.2,1.7,2.9
				c4.1,2,6.2,6.4,5.6,11.2c-0.6,4.4-4,8-8.6,9c-3.8,0.8-7.5,0.5-10.9-1.7c-3.9-2.6-5.2-6.4-4.5-10.9c0.6-4.2,3.2-6.9,7.1-8.4
				c0.5-0.2,1.1-0.4,1.2-0.7c0.2-0.8,0.2-1.7-0.6-2.3c-0.1-0.1-0.2-0.3-0.4-0.4C176.1,65.4,175.3,62.9,176,59.7z M177.2,61
				c-0.5,1.9,0,3.5,1.8,5.1c1.3,1.2,1.9,2.4,1.8,4.2c-0.1,0.8-0.2,1.2-1.1,1.4c-3.7,1-6.3,3.2-7.2,7c-0.8,3.9,0,7.4,3.3,9.9
				c2.8,2.2,6.1,2.6,9.5,2.1c3.1-0.5,5.7-1.9,7.3-4.7c2.6-4.3,1.6-11.6-5.2-14c-0.6-0.2-0.8-0.5-0.8-1.1c0-0.8,0-1.7,0-2.5
				c0.1-1.5-0.5-2.8-1.6-3.8c-1.1-1-2.2-1.9-2.1-3.6C181,61,179.1,61,177.2,61z"/>
			<path class="st0" d="M102,81.2c0-2.9,1.8-4.7,4.8-4.7c2.8,0,4.8,1.9,4.8,4.7c0,2.8-2,4.7-4.8,4.7C103.8,85.8,101.8,83.9,102,81.2
				z M103.3,81.2c0,2.2,1.2,3.4,3.4,3.4c2.2,0,3.5-1.2,3.5-3.3c0-2.2-1.3-3.5-3.5-3.5C104.6,77.8,103.3,79,103.3,81.2z"/>
			<path class="st0" d="M178.3,81.1c0-2.9,1.9-4.8,4.9-4.8c2.9,0,4.9,1.9,4.9,4.8c0,2.9-2,4.8-4.9,4.8
				C180.1,85.8,178.3,84,178.3,81.1z M183.1,84.6c2.3,0,3.6-1.3,3.6-3.4c0-2.2-1.4-3.5-3.6-3.5c-2.2,0-3.6,1.3-3.6,3.4
				C179.5,83.3,180.8,84.6,183.1,84.6z"/>
		</g>
	</g>
</g>
</svg>
