<svg width="188" height="66" viewBox="0 0 188 66" fill="none" xmlns="http://www.w3.org/2000/svg">
<path d="M8.59574 23.3C6.91574 23.3 5.45574 22.99 4.21574 22.37C2.97574 21.75 2.02574 20.89 1.36574 19.79C0.705742 18.67 0.375742 17.41 0.375742 16.01C0.375742 15.35 0.445742 14.73 0.585742 14.15L4.93574 14.33C4.85574 14.71 4.81574 15.13 4.81574 15.59C4.81574 16.83 5.15574 17.8 5.83574 18.5C6.51574 19.18 7.42574 19.52 8.56574 19.52C9.66574 19.52 10.5457 19.21 11.2057 18.59C11.8857 17.95 12.2257 17.1 12.2257 16.04C12.2257 15 11.9057 14.2 11.2657 13.64C10.6457 13.06 9.76574 12.77 8.62574 12.77H7.45574V9.08H8.92574C9.90574 9.08 10.6457 8.87 11.1457 8.45C11.6657 8.01 11.9257 7.41 11.9257 6.65C11.9257 5.91 11.6557 5.29 11.1157 4.79C10.5757 4.29 9.83574 4.02 8.89574 3.98L9.13574 0.319999C10.5757 0.319999 11.8457 0.589999 12.9457 1.13C14.0457 1.65 14.8957 2.38 15.4957 3.32C16.0957 4.26 16.3957 5.34 16.3957 6.56C16.3957 7.6 16.1357 8.54 15.6157 9.38C15.1157 10.2 14.3657 10.8 13.3657 11.18C14.3857 11.5 15.1957 12.15 15.7957 13.13C16.4157 14.11 16.7257 15.23 16.7257 16.49C16.7257 17.79 16.3957 18.96 15.7357 20C15.0957 21.02 14.1557 21.83 12.9157 22.43C11.6957 23.01 10.2557 23.3 8.59574 23.3ZM21.6443 23C21.1043 21.28 20.6843 19.56 20.3843 17.84C20.1043 16.1 19.9643 14.17 19.9643 12.05V8.6C19.9643 6.86 20.3043 5.36 20.9843 4.1C21.6643 2.84 22.5943 1.88 23.7743 1.22C24.9743 0.559999 26.3343 0.229998 27.8543 0.229998C29.3543 0.229998 30.6943 0.559999 31.8743 1.22C33.0743 1.88 34.0143 2.84 34.6943 4.1C35.3743 5.34 35.7143 6.82 35.7143 8.54V12.05C35.7143 14.17 35.5643 16.11 35.2643 17.87C34.9843 19.61 34.5743 21.32 34.0343 23H29.7143C30.7543 19.5 31.2743 15.91 31.2743 12.23V8.78C31.2743 7.3 30.9643 6.16 30.3443 5.36C29.7443 4.56 28.9143 4.16 27.8543 4.16C26.7943 4.16 25.9543 4.56 25.3343 5.36C24.7343 6.16 24.4343 7.31 24.4343 8.81V12.23C24.4343 15.91 24.9543 19.5 25.9943 23H21.6443ZM46.951 23.3C45.471 23.3 44.151 22.97 42.991 22.31C41.831 21.65 40.921 20.69 40.261 19.43C39.601 18.17 39.271 16.67 39.271 14.93V8.6C39.271 6.86 39.581 5.36 40.201 4.1C40.841 2.84 41.721 1.88 42.841 1.22C43.981 0.559999 45.291 0.229998 46.771 0.229998C49.471 0.229998 51.351 1.25 52.411 3.29C52.891 2.23 53.611 1.46 54.571 0.979999C55.531 0.479998 56.551 0.229998 57.631 0.229998C59.651 0.229998 61.261 0.909998 62.461 2.27C63.661 3.61 64.261 5.55 64.261 8.09V11.84C64.261 14.04 64.121 16.02 63.841 17.78C63.561 19.52 63.151 21.26 62.611 23H58.231C58.751 21.24 59.141 19.47 59.401 17.69C59.681 15.89 59.821 13.97 59.821 11.93V7.79C59.821 6.57 59.581 5.66 59.101 5.06C58.641 4.46 58.001 4.16 57.181 4.16C56.361 4.16 55.731 4.46 55.291 5.06C54.851 5.66 54.631 6.57 54.631 7.79V15.02C54.631 16.74 54.291 18.23 53.611 19.49C52.951 20.73 52.041 21.68 50.881 22.34C49.721 22.98 48.411 23.3 46.951 23.3ZM43.741 14.93C43.741 16.43 44.021 17.55 44.581 18.29C45.141 19.01 45.931 19.37 46.951 19.37C47.971 19.37 48.761 19.01 49.321 18.29C49.881 17.55 50.161 16.44 50.161 14.96V8.57C50.161 7.09 49.881 5.99 49.321 5.27C48.761 4.53 47.971 4.16 46.951 4.16C45.931 4.16 45.141 4.53 44.581 5.27C44.021 5.99 43.741 7.1 43.741 8.6V14.93ZM76.3554 23.3C73.7954 23.3 71.7954 22.61 70.3554 21.23C68.9354 19.85 68.2254 17.98 68.2254 15.62V0.559999H72.6354V10.07C73.0954 9.53 73.7054 9.1 74.4654 8.78C75.2454 8.46 76.0854 8.3 76.9854 8.3C78.4654 8.3 79.7754 8.62 80.9154 9.26C82.0554 9.88 82.9354 10.76 83.5554 11.9C84.1754 13.04 84.4854 14.34 84.4854 15.8C84.4854 17.26 84.1554 18.56 83.4954 19.7C82.8554 20.82 81.9154 21.7 80.6754 22.34C79.4554 22.98 78.0154 23.3 76.3554 23.3ZM72.6354 16.1C72.6354 17.1 72.9754 17.92 73.6554 18.56C74.3354 19.18 75.2154 19.49 76.2954 19.49C77.3954 19.49 78.2754 19.16 78.9354 18.5C79.6154 17.82 79.9554 16.92 79.9554 15.8C79.9554 14.68 79.6154 13.79 78.9354 13.13C78.2754 12.45 77.3954 12.11 76.2954 12.11C75.2154 12.11 74.3354 12.43 73.6554 13.07C72.9754 13.69 72.6354 14.51 72.6354 15.53V16.1ZM95.4436 0.26C96.9036 0.26 98.2236 0.53 99.4036 1.07C100.604 1.61 101.544 2.38 102.224 3.38C102.904 4.38 103.244 5.56 103.244 6.92C103.244 8 102.984 8.93 102.464 9.71C101.944 10.47 101.174 11.05 100.154 11.45C101.194 11.77 102.014 12.4 102.614 13.34C103.234 14.26 103.544 15.35 103.544 16.61C103.544 17.87 103.214 19.01 102.554 20.03C101.914 21.03 100.974 21.83 99.7336 22.43C98.5136 23.01 97.0736 23.3 95.4136 23.3C93.6936 23.3 92.2036 22.99 90.9436 22.37C89.7036 21.75 88.7436 20.89 88.0636 19.79C87.4036 18.67 87.0736 17.41 87.0736 16.01C87.0736 15.35 87.1436 14.73 87.2836 14.15L91.6336 14.33C91.5536 14.71 91.5136 15.13 91.5136 15.59C91.5136 16.85 91.8536 17.82 92.5336 18.5C93.2336 19.18 94.1736 19.52 95.3536 19.52C96.4936 19.52 97.3936 19.22 98.0536 18.62C98.7336 18 99.0736 17.17 99.0736 16.13C99.0736 15.11 98.7436 14.33 98.0836 13.79C97.4436 13.25 96.5436 12.98 95.3836 12.98H94.6336V9.44H95.6836C96.6436 9.44 97.3936 9.21 97.9336 8.75C98.4736 8.27 98.7436 7.62 98.7436 6.8C98.7436 5.96 98.4336 5.29 97.8136 4.79C97.2136 4.27 96.4236 4.01 95.4436 4.01C94.4036 4.01 93.5936 4.29 93.0136 4.85C92.4536 5.41 92.1736 6.18 92.1736 7.16C92.1736 7.36 92.1936 7.68 92.2336 8.12L87.7636 8.24C87.7036 7.78 87.6736 7.31 87.6736 6.83C87.6736 5.53 88.0136 4.39 88.6936 3.41C89.3736 2.41 90.3036 1.64 91.4836 1.1C92.6636 0.539999 93.9836 0.26 95.4436 0.26ZM116.49 0.559999C116.49 1.46 116.6 2.27 116.82 2.99C117.04 3.71 117.32 4.34 117.66 4.88C118.02 5.42 118.49 6.07 119.07 6.83C119.75 7.71 120.29 8.49 120.69 9.17C121.11 9.83 121.46 10.65 121.74 11.63C122.04 12.61 122.19 13.75 122.19 15.05C122.19 16.81 121.83 18.31 121.11 19.55C120.41 20.79 119.45 21.73 118.23 22.37C117.03 22.99 115.68 23.3 114.18 23.3C112.68 23.3 111.33 22.98 110.13 22.34C108.93 21.7 107.98 20.76 107.28 19.52C106.6 18.28 106.26 16.78 106.26 15.02C106.26 13.98 106.4 12.88 106.68 11.72L111.03 11.87C110.83 12.81 110.73 13.74 110.73 14.66C110.73 16.1 111.03 17.24 111.63 18.08C112.25 18.92 113.11 19.34 114.21 19.34C115.27 19.34 116.1 18.97 116.7 18.23C117.32 17.47 117.64 16.38 117.66 14.96C117.66 13.82 117.45 12.85 117.03 12.05C116.63 11.23 116.01 10.27 115.17 9.17C114.47 8.27 113.9 7.46 113.46 6.74C113.04 6.02 112.68 5.15 112.38 4.13C112.1 3.11 111.98 1.92 112.02 0.559999H116.49ZM142.203 8.51C143.463 8.51 144.603 8.8 145.623 9.38C146.663 9.94 147.483 10.81 148.083 11.99C148.703 13.17 149.013 14.65 149.013 16.43C149.013 17.61 148.873 18.73 148.593 19.79C148.333 20.85 147.973 21.92 147.513 23H143.103C143.583 21.8 143.933 20.71 144.153 19.73C144.393 18.75 144.513 17.7 144.513 16.58C144.513 15.16 144.263 14.11 143.763 13.43C143.283 12.75 142.623 12.41 141.783 12.41C140.983 12.41 140.363 12.71 139.923 13.31C139.503 13.89 139.293 14.71 139.293 15.77V19.64H134.823V15.77C134.823 14.71 134.613 13.89 134.193 13.31C133.773 12.71 133.173 12.41 132.393 12.41C131.533 12.41 130.853 12.75 130.353 13.43C129.873 14.09 129.633 15.14 129.633 16.58C129.633 17.72 129.743 18.78 129.963 19.76C130.183 20.72 130.543 21.8 131.043 23H126.633C126.133 21.6 125.753 20.26 125.493 18.98C125.253 17.68 125.133 16.16 125.133 14.42C125.133 11.66 125.613 9.49 126.573 7.91C127.533 6.33 128.653 5.21 129.933 4.55C131.213 3.87 132.793 3.26 134.673 2.72C135.933 2.36 136.843 2.04 137.403 1.76C137.983 1.48 138.343 1.08 138.483 0.559999H143.073C142.993 1.76 142.583 2.73 141.843 3.47C141.123 4.21 140.263 4.77 139.263 5.15C138.263 5.53 136.953 5.93 135.333 6.35C134.013 6.69 132.953 6.99 132.153 7.25C131.353 7.51 130.633 7.87 129.993 8.33C129.373 8.79 128.943 9.38 128.703 10.1C129.123 9.54 129.683 9.14 130.383 8.9C131.083 8.64 131.783 8.51 132.483 8.51C134.663 8.51 136.193 9.38 137.073 11.12C138.013 9.38 139.723 8.51 142.203 8.51ZM153.48 23C152.94 21.28 152.52 19.56 152.22 17.84C151.94 16.1 151.8 14.17 151.8 12.05V8.6C151.8 6.86 152.14 5.36 152.82 4.1C153.5 2.84 154.43 1.88 155.61 1.22C156.81 0.559999 158.17 0.229998 159.69 0.229998C161.19 0.229998 162.53 0.559999 163.71 1.22C164.91 1.88 165.85 2.84 166.53 4.1C167.21 5.34 167.55 6.82 167.55 8.54V12.05C167.55 14.17 167.4 16.11 167.1 17.87C166.82 19.61 166.41 21.32 165.87 23H161.55C162.59 19.5 163.11 15.91 163.11 12.23V8.78C163.11 7.3 162.8 6.16 162.18 5.36C161.58 4.56 160.75 4.16 159.69 4.16C158.63 4.16 157.79 4.56 157.17 5.36C156.57 6.16 156.27 7.31 156.27 8.81V12.23C156.27 15.91 156.79 19.5 157.83 23H153.48ZM179.417 23.3C176.977 23.3 175.037 22.63 173.597 21.29C172.177 19.93 171.467 18.05 171.467 15.65V0.589999H175.907V15.71C175.907 16.93 176.237 17.87 176.897 18.53C177.557 19.17 178.387 19.49 179.387 19.49C180.367 19.49 181.187 19.21 181.847 18.65C182.527 18.07 182.867 17.33 182.867 16.43C182.867 15.81 182.777 15.28 182.597 14.84C182.437 14.4 182.177 13.87 181.817 13.25C181.337 12.45 180.987 11.71 180.767 11.03C180.547 10.35 180.477 9.48 180.557 8.42H184.937C184.937 9.2 185.027 9.86 185.207 10.4C185.407 10.92 185.707 11.53 186.107 12.23C186.527 12.99 186.847 13.68 187.067 14.3C187.287 14.9 187.397 15.68 187.397 16.64C187.397 17.84 187.067 18.95 186.407 19.97C185.747 20.99 184.807 21.8 183.587 22.4C182.387 23 180.997 23.3 179.417 23.3ZM40.4185 65C40.2185 63.9 39.5985 63.12 38.5585 62.66C37.5185 62.18 36.2385 61.94 34.7185 61.94H27.3085V58.61H29.5585C28.1585 57.81 27.0285 56.67 26.1685 55.19C25.3285 53.69 24.9085 52.04 24.9085 50.24C24.9085 48.46 25.2185 46.98 25.8385 45.8C26.4585 44.6 27.2885 43.71 28.3285 43.13C29.3685 42.55 30.5185 42.26 31.7785 42.26C32.8985 42.26 33.9385 42.51 34.8985 43.01C35.8785 43.49 36.5885 44.19 37.0285 45.11C37.4885 44.23 38.2085 43.54 39.1885 43.04C40.1685 42.52 41.2485 42.26 42.4285 42.26C43.7885 42.26 45.0085 42.56 46.0885 43.16C47.1885 43.76 48.0485 44.6 48.6685 45.68C49.3085 46.76 49.6285 48.01 49.6285 49.43C49.6285 50.79 49.3085 52.01 48.6685 53.09C48.0285 54.15 47.1385 54.98 45.9985 55.58C44.8785 56.16 43.6085 56.45 42.1885 56.45C40.7685 56.45 39.4885 56.16 38.3485 55.58C37.2285 55 36.3385 54.2 35.6785 53.18C35.0385 52.14 34.7185 50.96 34.7185 49.64V49.04C34.7185 48.14 34.4985 47.42 34.0585 46.88C33.6185 46.32 33.0185 46.04 32.2585 46.04C31.3785 46.04 30.6885 46.39 30.1885 47.09C29.6885 47.77 29.4385 48.84 29.4385 50.3C29.4385 52.8 30.1185 54.7 31.4785 56C32.8585 57.3 34.5585 58.05 36.5785 58.25L37.5685 58.34C39.7685 58.58 41.5085 59.26 42.7885 60.38C44.0885 61.48 44.8085 63.02 44.9485 65H40.4185ZM39.0985 49.37C39.0985 50.37 39.3785 51.18 39.9385 51.8C40.5185 52.42 41.2685 52.73 42.1885 52.73C43.0885 52.73 43.8185 52.43 44.3785 51.83C44.9385 51.21 45.2185 50.39 45.2185 49.37C45.2185 48.35 44.9385 47.54 44.3785 46.94C43.8385 46.32 43.1085 46.01 42.1885 46.01C41.2685 46.01 40.5185 46.32 39.9385 46.94C39.3785 47.54 39.0985 48.35 39.0985 49.37ZM61.0313 42.56C61.0313 43.46 61.1413 44.27 61.3613 44.99C61.5813 45.71 61.8613 46.34 62.2013 46.88C62.5613 47.42 63.0313 48.07 63.6113 48.83C64.2913 49.71 64.8313 50.49 65.2313 51.17C65.6513 51.83 66.0013 52.65 66.2813 53.63C66.5813 54.61 66.7313 55.75 66.7313 57.05C66.7313 58.81 66.3713 60.31 65.6513 61.55C64.9513 62.79 63.9913 63.73 62.7713 64.37C61.5713 64.99 60.2213 65.3 58.7213 65.3C57.2213 65.3 55.8713 64.98 54.6713 64.34C53.4713 63.7 52.5213 62.76 51.8213 61.52C51.1413 60.28 50.8013 58.78 50.8013 57.02C50.8013 55.98 50.9413 54.88 51.2213 53.72L55.5713 53.87C55.3713 54.81 55.2713 55.74 55.2713 56.66C55.2713 58.1 55.5713 59.24 56.1713 60.08C56.7913 60.92 57.6513 61.34 58.7513 61.34C59.8113 61.34 60.6413 60.97 61.2413 60.23C61.8613 59.47 62.1813 58.38 62.2013 56.96C62.2013 55.82 61.9913 54.85 61.5713 54.05C61.1713 53.23 60.5513 52.27 59.7113 51.17C59.0113 50.27 58.4413 49.46 58.0013 48.74C57.5813 48.02 57.2213 47.15 56.9213 46.13C56.6413 45.11 56.5213 43.92 56.5613 42.56H61.0313ZM78.3141 65.3C75.7541 65.3 73.7541 64.61 72.3141 63.23C70.8941 61.85 70.1841 59.98 70.1841 57.62L70.1541 47.66C70.1541 46.64 70.3841 45.73 70.8441 44.93C71.3241 44.11 71.9941 43.47 72.8541 43.01C73.7141 42.53 74.7041 42.29 75.8241 42.29C76.8641 42.29 77.8041 42.49 78.6441 42.89C79.4841 43.27 80.1241 43.86 80.5641 44.66C81.3641 43.1 82.7341 42.32 84.6741 42.32C85.4741 42.32 86.0641 42.38 86.4441 42.5V46.31C86.1241 46.25 85.7341 46.22 85.2741 46.22C84.5741 46.22 84.0041 46.4 83.5641 46.76C83.1441 47.12 82.9341 47.61 82.9341 48.23V48.95H78.5241V47.78C78.5241 47.22 78.3341 46.77 77.9541 46.43C77.5941 46.07 77.1341 45.89 76.5741 45.89C76.0141 45.89 75.5441 46.07 75.1641 46.43C74.7841 46.77 74.5941 47.27 74.5941 47.93V52.28C75.0541 51.74 75.6641 51.31 76.4241 50.99C77.2041 50.67 78.0441 50.51 78.9441 50.51C80.4241 50.51 81.7241 50.83 82.8441 51.47C83.9841 52.09 84.8641 52.97 85.4841 54.11C86.1241 55.23 86.4441 56.51 86.4441 57.95C86.4441 59.37 86.1141 60.64 85.4541 61.76C84.8141 62.86 83.8741 63.73 82.6341 64.37C81.4141 64.99 79.9741 65.3 78.3141 65.3ZM74.5941 58.25C74.5941 59.17 74.9341 59.94 75.6141 60.56C76.3141 61.18 77.1941 61.49 78.2541 61.49C79.3341 61.49 80.2141 61.17 80.8941 60.53C81.5741 59.87 81.9141 59 81.9141 57.92C81.9141 56.84 81.5741 55.98 80.8941 55.34C80.2341 54.68 79.3541 54.35 78.2541 54.35C77.1741 54.35 76.2941 54.66 75.6141 55.28C74.9341 55.9 74.5941 56.72 74.5941 57.74V58.25ZM97.5509 65.33C95.9509 65.33 94.5309 65.05 93.2909 64.49C92.0509 63.91 91.0909 63.11 90.4109 62.09C89.7309 61.05 89.3909 59.88 89.3909 58.58C89.3909 58.12 89.4409 57.56 89.5409 56.9L93.9509 57.08C93.8909 57.46 93.8609 57.77 93.8609 58.01C93.8609 59.11 94.1909 59.98 94.8509 60.62C95.5309 61.24 96.4209 61.55 97.5209 61.55C98.6209 61.55 99.5009 61.24 100.161 60.62C100.821 59.98 101.151 59.09 101.151 57.95V53.87C100.671 54.37 100.051 54.76 99.2909 55.04C98.5509 55.32 97.7209 55.46 96.8009 55.46C95.5009 55.46 94.3009 55.17 93.2009 54.59C92.1209 54.01 91.2509 53.16 90.5909 52.04C89.9309 50.92 89.6009 49.59 89.6009 48.05C89.6009 46.91 89.6809 45.94 89.8409 45.14C90.0209 44.32 90.2909 43.45 90.6509 42.53H95.0909C94.4509 44.33 94.1309 46.04 94.1309 47.66C94.1309 48.96 94.4209 49.94 95.0009 50.6C95.6009 51.24 96.4509 51.56 97.5509 51.56C98.6709 51.56 99.5509 51.25 100.191 50.63C100.831 49.99 101.151 49.09 101.151 47.93V42.53H105.561V58.25C105.561 59.63 105.241 60.86 104.601 61.94C103.961 63 103.031 63.83 101.811 64.43C100.611 65.03 99.1909 65.33 97.5509 65.33ZM117.026 65.3C115.446 65.3 114.056 64.99 112.856 64.37C111.656 63.75 110.726 62.9 110.066 61.82C109.406 60.72 109.076 59.47 109.076 58.07C109.076 57.27 109.206 56.45 109.466 55.61L113.756 55.79C113.616 56.53 113.546 57.15 113.546 57.65C113.546 58.79 113.856 59.7 114.476 60.38C115.096 61.04 115.956 61.37 117.056 61.37C118.116 61.37 118.966 61.06 119.606 60.44C120.266 59.82 120.596 58.92 120.596 57.74V49.43C120.576 48.37 120.266 47.57 119.666 47.03C119.066 46.47 118.306 46.19 117.386 46.19C116.386 46.19 115.606 46.47 115.046 47.03C114.486 47.59 114.206 48.37 114.206 49.37C114.206 49.81 114.246 50.23 114.326 50.63L109.856 50.75C109.736 50.09 109.676 49.43 109.676 48.77C109.676 47.47 110.016 46.33 110.696 45.35C111.376 44.35 112.296 43.59 113.456 43.07C114.636 42.53 115.946 42.26 117.386 42.26C118.846 42.26 120.156 42.55 121.316 43.13C122.476 43.69 123.386 44.51 124.046 45.59C124.706 46.67 125.036 47.94 125.036 49.4V57.74C125.036 59.26 124.716 60.59 124.076 61.73C123.436 62.87 122.516 63.75 121.316 64.37C120.116 64.99 118.686 65.3 117.026 65.3ZM136.424 65.3C134.864 65.3 133.454 65 132.194 64.4C130.954 63.78 129.974 62.91 129.254 61.79C128.554 60.65 128.204 59.34 128.204 57.86C128.204 55.92 128.794 54.3 129.974 53C131.174 51.68 132.744 50.86 134.684 50.54V48.74C134.684 48.28 134.584 47.91 134.384 47.63C134.204 47.35 133.904 47.02 133.484 46.64C132.904 46.12 132.464 45.58 132.164 45.02C131.864 44.46 131.764 43.64 131.864 42.56H136.274C136.274 43.16 136.384 43.64 136.604 44C136.824 44.34 137.154 44.7 137.594 45.08C138.094 45.5 138.474 45.93 138.734 46.37C138.994 46.79 139.124 47.39 139.124 48.17V50.75C140.804 51.21 142.144 52.07 143.144 53.33C144.164 54.59 144.674 56.1 144.674 57.86C144.674 59.34 144.314 60.65 143.594 61.79C142.874 62.91 141.884 63.78 140.624 64.4C139.384 65 137.984 65.3 136.424 65.3ZM132.704 57.86C132.704 58.98 133.044 59.87 133.724 60.53C134.424 61.17 135.324 61.49 136.424 61.49C137.544 61.49 138.444 61.17 139.124 60.53C139.824 59.87 140.174 58.98 140.174 57.86C140.174 56.76 139.824 55.88 139.124 55.22C138.444 54.56 137.544 54.23 136.424 54.23C135.324 54.23 134.424 54.56 133.724 55.22C133.044 55.88 132.704 56.76 132.704 57.86ZM157.389 42.56C157.389 43.46 157.499 44.27 157.719 44.99C157.939 45.71 158.219 46.34 158.559 46.88C158.919 47.42 159.389 48.07 159.969 48.83C160.649 49.71 161.189 50.49 161.589 51.17C162.009 51.83 162.359 52.65 162.639 53.63C162.939 54.61 163.089 55.75 163.089 57.05C163.089 58.81 162.729 60.31 162.009 61.55C161.309 62.79 160.349 63.73 159.129 64.37C157.929 64.99 156.579 65.3 155.079 65.3C153.579 65.3 152.229 64.98 151.029 64.34C149.829 63.7 148.879 62.76 148.179 61.52C147.499 60.28 147.159 58.78 147.159 57.02C147.159 55.98 147.299 54.88 147.579 53.72L151.929 53.87C151.729 54.81 151.629 55.74 151.629 56.66C151.629 58.1 151.929 59.24 152.529 60.08C153.149 60.92 154.009 61.34 155.109 61.34C156.169 61.34 156.999 60.97 157.599 60.23C158.219 59.47 158.539 58.38 158.559 56.96C158.559 55.82 158.349 54.85 157.929 54.05C157.529 53.23 156.909 52.27 156.069 51.17C155.369 50.27 154.799 49.46 154.359 48.74C153.939 48.02 153.579 47.15 153.279 46.13C152.999 45.11 152.879 43.92 152.919 42.56H157.389Z" fill="#232323"/>
</svg>
